<mxfile host="65bd71144e">
    <diagram id="axyefbAZoxfXQ56fnvA3" name="Page-1">
        <mxGraphModel dx="1676" dy="667" grid="1" gridSize="10" guides="1" tooltips="1" connect="1" arrows="1" fold="1" page="1" pageScale="1" pageWidth="850" pageHeight="1100" background="none" math="0" shadow="0" adaptiveColors="auto">
            <root>
                <mxCell id="0"/>
                <mxCell id="1" parent="0"/>
                <mxCell id="2" value="" style="whiteSpace=wrap;html=1;fontFamily=Times New Roman;" vertex="1" parent="1">
                    <mxGeometry x="-270" y="240" width="180" height="140" as="geometry"/>
                </mxCell>
                <mxCell id="RsuxlLj99oC1pN5AxxmY-2" value="source code" style="text;strokeColor=none;fillColor=none;html=1;fontSize=24;fontStyle=1;verticalAlign=middle;align=center;" vertex="1" parent="1">
                    <mxGeometry x="-230" y="290" width="100" height="40" as="geometry"/>
                </mxCell>
                <mxCell id="RsuxlLj99oC1pN5AxxmY-3" value="" style="shape=singleArrow;whiteSpace=wrap;html=1;" vertex="1" parent="1">
                    <mxGeometry x="320" y="280" width="100" height="60" as="geometry"/>
                </mxCell>
                <mxCell id="RsuxlLj99oC1pN5AxxmY-4" value="" style="whiteSpace=wrap;html=1;fontFamily=Times New Roman;" vertex="1" parent="1">
                    <mxGeometry x="450" y="240" width="180" height="140" as="geometry"/>
                </mxCell>
                <mxCell id="RsuxlLj99oC1pN5AxxmY-5" value="IR&amp;nbsp;&amp;nbsp;&lt;div&gt;optimistion code&lt;/div&gt;" style="text;strokeColor=none;fillColor=none;html=1;fontSize=24;fontStyle=1;verticalAlign=middle;align=center;" vertex="1" parent="1">
                    <mxGeometry x="491" y="290" width="100" height="40" as="geometry"/>
                </mxCell>
                <mxCell id="RsuxlLj99oC1pN5AxxmY-6" value="" style="whiteSpace=wrap;html=1;fontFamily=Times New Roman;" vertex="1" parent="1">
                    <mxGeometry x="790" y="240" width="180" height="140" as="geometry"/>
                </mxCell>
                <mxCell id="RsuxlLj99oC1pN5AxxmY-7" value="bytecode&lt;div&gt;for CPython VM&lt;/div&gt;" style="text;strokeColor=none;fillColor=none;html=1;fontSize=24;fontStyle=1;verticalAlign=middle;align=center;" vertex="1" parent="1">
                    <mxGeometry x="830" y="290" width="100" height="40" as="geometry"/>
                </mxCell>
                <mxCell id="RsuxlLj99oC1pN5AxxmY-8" value="" style="shape=singleArrow;whiteSpace=wrap;html=1;" vertex="1" parent="1">
                    <mxGeometry x="660" y="280" width="100" height="60" as="geometry"/>
                </mxCell>
                <mxCell id="RsuxlLj99oC1pN5AxxmY-9" value="" style="shape=singleArrow;whiteSpace=wrap;html=1;arrowWidth=0.22000020345052082;arrowSize=0.3920001220703125;" vertex="1" parent="1">
                    <mxGeometry x="1000" y="280" width="100" height="60" as="geometry"/>
                </mxCell>
                <mxCell id="RsuxlLj99oC1pN5AxxmY-10" value="" style="whiteSpace=wrap;html=1;fontFamily=Times New Roman;" vertex="1" parent="1">
                    <mxGeometry x="1120" y="240" width="180" height="140" as="geometry"/>
                </mxCell>
                <mxCell id="RsuxlLj99oC1pN5AxxmY-11" value="CPython&lt;div&gt;executes&lt;/div&gt;&lt;div&gt;bytecode&lt;/div&gt;" style="text;strokeColor=none;fillColor=none;html=1;fontSize=24;fontStyle=1;verticalAlign=middle;align=center;" vertex="1" parent="1">
                    <mxGeometry x="1160" y="290" width="100" height="40" as="geometry"/>
                </mxCell>
                <mxCell id="RsuxlLj99oC1pN5AxxmY-12" value="" style="whiteSpace=wrap;html=1;fontFamily=Times New Roman;" vertex="1" parent="1">
                    <mxGeometry x="110" y="240" width="180" height="140" as="geometry"/>
                </mxCell>
                <mxCell id="RsuxlLj99oC1pN5AxxmY-13" value="type checker&lt;div&gt;borrow checker&lt;/div&gt;&lt;div&gt;linting&lt;/div&gt;" style="text;strokeColor=none;fillColor=none;html=1;fontSize=24;fontStyle=1;verticalAlign=middle;align=center;" vertex="1" parent="1">
                    <mxGeometry x="150" y="290" width="110" height="40" as="geometry"/>
                </mxCell>
                <mxCell id="RsuxlLj99oC1pN5AxxmY-14" value="" style="shape=singleArrow;whiteSpace=wrap;html=1;" vertex="1" parent="1">
                    <mxGeometry x="-40" y="280" width="100" height="60" as="geometry"/>
                </mxCell>
            </root>
        </mxGraphModel>
    </diagram>
</mxfile>
